#N canvas 1039 520 450 300 10;
#X obj 53 62 inlet~;
#X obj 334 62 inlet~;
#X obj 103 386 outlet~;
#X text 64 39 wet;
#X text 346 38 dry;
#X obj 174 168 cos~;
#X obj 108 183 cos~;
#X obj 168 101 hsl 100 15 0 0.25 0 0 empty empty empty -2 -8 0 10 -262144
-1 -1 0 1;
#X obj 108 152 + 0.75;
#X obj 78 234 *~;
#X obj 231 243 *~;
#X obj 166 70 / 4;
#X obj 166 32 inlet;
#X connect 0 0 9 0;
#X connect 1 0 10 0;
#X connect 5 0 10 1;
#X connect 6 0 9 1;
#X connect 7 0 5 0;
#X connect 7 0 8 0;
#X connect 8 0 6 0;
#X connect 9 0 2 0;
#X connect 10 0 2 0;
#X connect 11 0 7 0;
#X connect 12 0 11 0;
