#N canvas 0 0 1888 980 10;
#X obj 91 136 / 25;
#X obj 28 119 mtof;
#X obj 29 164 pack 0 50;
#X obj 29 189 line~;
#X floatatom 28 142 7 0 0 0 - - -, f 7;
#X msg 217 160 saturation \$1;
#X obj 217 136 / 100;
#X msg 309 160 oversample \$1;
#X text 127 158 scaled to 0-8;
#X text 126 140 0-200 control;
#X obj 90 164 line~;
#X obj 15 240 bob~;
#X obj 15 65 inlet~;
#X obj 91 87 r reso;
#X obj 28 88 r cut;
#X obj 217 78 loadbang;
#X text 350 73 oversampling;
#X obj 354 96 loadbang;
#X text 209 39 saturation point;
#X text 206 56 of "transistors";
#X msg 217 103 300;
#X obj 15 279 outlet~;
#X msg 354 121 10;
#X connect 0 0 10 0;
#X connect 1 0 4 0;
#X connect 2 0 3 0;
#X connect 3 0 11 1;
#X connect 4 0 2 0;
#X connect 5 0 11 0;
#X connect 6 0 5 0;
#X connect 7 0 11 0;
#X connect 10 0 11 2;
#X connect 11 0 21 0;
#X connect 12 0 11 0;
#X connect 13 0 0 0;
#X connect 14 0 1 0;
#X connect 15 0 20 0;
#X connect 17 0 22 0;
#X connect 20 0 6 0;
#X connect 22 0 7 0;
