#N canvas -8 -8 1904 996 10;
#X obj 48 138 vsl 15 128 0 1 0 0 empty empty empty 0 -9 0 10 -262144
-1 -1 10800 1;
#X floatatom 47 308 5 0 0 0 - - -, f 5;
#X text 45 113 sharp;
#X obj 159 139 vsl 15 128 0 250 0 0 empty empty empty 0 -9 0 10 -262144
-1 -1 3000 1;
#X floatatom 153 298 5 0 0 0 - - -, f 5;
#X text 157 116 AM;
#X obj 207 135 vsl 15 128 0 1 0 0 empty empty empty 0 -9 0 10 -262144
-1 -1 11150 1;
#X floatatom 202 294 5 0 0 0 - - -, f 5;
#X text 204 110 AM TREM;
#X obj 259 135 vsl 15 128 0.5 1 0 0 empty empty empty 0 -9 0 10 -262144
-1 -1 11300 1;
#X floatatom 254 294 5 0 0 0 - - -, f 5;
#X text 256 110 duty;
#X obj 307 137 vsl 15 128 0 0.99 0 0 empty empty empty 0 -9 0 10 -262144
-1 -1 3850 1;
#X floatatom 302 296 5 0 0 0 - - -, f 5;
#X obj 136 62 hsl 128 15 0 127 0 0 empty empty empty -2 -8 0 10 -262144
-1 -1 5750 1;
#X floatatom 101 182 5 0 0 0 - - -, f 5;
#X obj 103 212 mtof;
#X floatatom 104 267 5 0 0 0 - - -, f 5;
#X text 183 32 midiin;
#X obj 49 540 dac~;
#X obj 86 401 hsl 128 15 0 1 0 0 empty empty empty -2 -8 0 10 -262144
-1 -1 1900 1;
#X obj 47 498 *~ 0.1;
#X text 304 112 PW;
#X obj 490 19 tgl 15 0 empty empty empty 17 7 0 10 -262144 -1 -1 1
1;
#X text 129 381 volume;
#N canvas 0 0 450 300 (subpatch) 0;
#X array osc 100 float 0 black #000000;
#X coords 0 1 99 -1 250 150 1;
#X restore 351 115 graph;
#X obj 482 47 metro 100;
#X obj 443 75 tabwrite~ osc;
#X obj 351 279 vradio 15 0 0 3 empty empty empty 0 -8 0 10 -262144
-1 -1 2;
#X text 369 278 skinny;
#X text 369 294 fat;
#X text 369 309 o' lord;
#X obj 46 348 russianVoice, f 52;
#X obj 415 39 r~ scope;
#X connect 0 0 1 0;
#X connect 1 0 32 0;
#X connect 3 0 4 0;
#X connect 4 0 32 2;
#X connect 6 0 7 0;
#X connect 7 0 32 3;
#X connect 9 0 10 0;
#X connect 10 0 32 4;
#X connect 12 0 13 0;
#X connect 13 0 32 5;
#X connect 14 0 15 0;
#X connect 15 0 16 0;
#X connect 16 0 17 0;
#X connect 17 0 32 1;
#X connect 20 0 21 1;
#X connect 21 0 19 0;
#X connect 21 0 19 1;
#X connect 23 0 26 0;
#X connect 26 0 27 0;
#X connect 28 0 32 6;
#X connect 32 0 21 0;
#X connect 33 0 27 0;
