#N canvas -8 -8 1904 996 10;
#X obj 28 105 vsl 15 128 0 1 0 0 empty empty sharp -7 -9 0 10 -262144
-1 -1 0 1;
#X floatatom 28 260 5 0 0 0 - - -, f 5;
#X obj 84 105 vsl 15 128 0 250 0 0 empty empty am 0 -9 0 10 -262144
-1 -1 0 1;
#X floatatom 84 260 5 0 0 0 - - -, f 5;
#X obj 135 105 vsl 15 128 0 1 0 0 empty empty am\ trem -12 -9 0 10
-262144 -1 -1 0 1;
#X floatatom 135 260 5 0 0 0 - - -, f 5;
#X obj 187 105 vsl 15 128 0.5 1 0 0 empty empty duty -4 -9 0 10 -262144
-1 -1 0 1;
#X floatatom 187 260 5 0 0 0 - - -, f 5;
#X obj 238 105 vsl 15 128 0 0.99 0 0 empty empty pw 0 -9 0 10 -262144
-1 -1 0 1;
#X floatatom 238 260 5 0 0 0 - - -, f 5;
#X obj 28 755 dac~;
#X obj 84 711 tgl 15 0 empty empty empty 17 7 0 10 -262144 -1 -1 0
1;
#N canvas 0 0 450 300 (subpatch) 0;
#X array osc 100 float 0 black #000000;
#X coords 0 1 99 -1 250 150 1;
#X restore 381 60 graph;
#X obj 84 735 metro 100;
#X obj 60 755 tabwrite~ osc;
#X obj 28 475 russianVoice;
#X obj 276 73 vsl 15 128 0 1000 0 0 a empty a 0 -9 0 10 -262144 -1
-1 0 1;
#X obj 298 73 vsl 15 128 0 1000 0 0 d empty d 0 -9 0 10 -262144 -1
-1 0 1;
#X obj 343 73 vsl 15 128 0 1000 0 0 r empty r 0 -9 0 10 -262144 -1
-1 13 1;
#X obj 321 73 vsl 15 128 0 1 0 0 s empty s 0 -9 0 10 -262144 -1 -1
12700 1;
#X obj 28 335 notein;
#X obj 28 292 s sharp;
#X obj 84 292 s am;
#X obj 135 292 s trem;
#X obj 187 292 s duty;
#X obj 238 292 s pw;
#X obj 108 475 russianVoice;
#X obj 189 475 russianVoice;
#X obj 269 475 russianVoice;
#X obj 350 475 russianVoice;
#X obj 431 475 russianVoice;
#X obj 511 475 russianVoice;
#X obj 592 475 russianVoice;
#X obj 321 13 loadbang;
#X msg 321 33 1;
#X msg 135 35 0;
#X obj 28 602 *~;
#X obj 28 391 pack f f f;
#X obj 28 431 route 1 2 3 4 5 6 7 8, f 108;
#X obj 28 365 poly 8 1, f 10;
#X obj 84 604 hsl 128 15 0 1 0 0 empty empty Volume -2 -11 0 10 -262144
-1 -1 0 1;
#X obj 28 677 pg_chorus;
#X obj 288 261 hsl 37 15 0 1 0 0 empty empty chorus -2 -11 0 10 -262144
-1 -1 0 1;
#X obj 288 292 s cdw;
#X floatatom 751 208 5 0 90 0 - - -, f 5;
#X floatatom 693 208 5 0 150 0 - - -, f 5;
#X obj 751 5 loadbang;
#X obj 693 5 loadbang;
#X obj 492 328 seq;
#X msg 573 284 stop;
#X msg 579 305 pause;
#X msg 584 326 continue;
#X msg 558 240 read prelude.mid;
#X obj 485 357 midiparse;
#X obj 467 385 unpack f f;
#X obj 453 258 bng 15 250 50 0 empty empty empty 17 7 0 10 -262144
-1 -1;
#X obj 693 232 s cut;
#X obj 751 232 s reso;
#X obj 28 639 lp_vcf;
#X msg 693 30 150;
#X msg 751 30 0;
#X obj 693 67 vsl 15 128 0 150 0 0 empty empty cutoff 0 -9 0 10 -262144
-1 -1 12700 1;
#X obj 751 67 vsl 15 128 0 90 0 0 empty empty resonance 0 -9 0 10 -262144
-1 -1 0 1;
#X text 796 201 BE VERY VERY VERY CAREFUL USING HIGH RESONANCE VALUES!!!
(>100) NUMBER OBJECT IS LIMITED TO 90 JUST IN CASE, f 63;
#X msg 568 260 read arab.mid;
#X text 17 783 for using scarlet audio interfaces on linux see: https://www.raspberrypi.org/forums/viewtopic.php?p=971928
;
#X connect 0 0 1 0;
#X connect 1 0 21 0;
#X connect 2 0 3 0;
#X connect 3 0 22 0;
#X connect 4 0 5 0;
#X connect 5 0 23 0;
#X connect 6 0 7 0;
#X connect 7 0 24 0;
#X connect 8 0 9 0;
#X connect 9 0 25 0;
#X connect 11 0 13 0;
#X connect 13 0 14 0;
#X connect 15 0 36 0;
#X connect 20 0 39 0;
#X connect 20 1 39 1;
#X connect 26 0 36 0;
#X connect 27 0 36 0;
#X connect 28 0 36 0;
#X connect 29 0 36 0;
#X connect 30 0 36 0;
#X connect 31 0 36 0;
#X connect 32 0 36 0;
#X connect 33 0 34 0;
#X connect 33 0 35 0;
#X connect 34 0 19 0;
#X connect 34 0 18 0;
#X connect 35 0 4 0;
#X connect 35 0 0 0;
#X connect 35 0 2 0;
#X connect 35 0 6 0;
#X connect 35 0 8 0;
#X connect 35 0 16 0;
#X connect 35 0 17 0;
#X connect 35 0 42 0;
#X connect 36 0 58 0;
#X connect 37 0 38 0;
#X connect 38 0 15 0;
#X connect 38 1 26 0;
#X connect 38 2 27 0;
#X connect 38 3 28 0;
#X connect 38 4 29 0;
#X connect 38 5 30 0;
#X connect 38 6 31 0;
#X connect 38 7 32 0;
#X connect 39 0 37 0;
#X connect 39 1 37 1;
#X connect 39 2 37 2;
#X connect 40 0 36 1;
#X connect 41 0 10 0;
#X connect 41 0 10 1;
#X connect 41 0 14 0;
#X connect 42 0 43 0;
#X connect 44 0 57 0;
#X connect 45 0 56 0;
#X connect 46 0 60 0;
#X connect 47 0 59 0;
#X connect 48 0 53 0;
#X connect 49 0 48 0;
#X connect 50 0 48 0;
#X connect 51 0 48 0;
#X connect 52 0 48 0;
#X connect 53 0 54 0;
#X connect 54 0 39 0;
#X connect 54 1 39 1;
#X connect 55 0 48 0;
#X connect 58 0 41 0;
#X connect 59 0 61 0;
#X connect 60 0 62 0;
#X connect 61 0 45 0;
#X connect 62 0 44 0;
#X connect 64 0 48 0;
#X coords 0 0 1 1 543 290 0;
