#N canvas -8 -8 1904 996 10;
#X obj 25 67 vsl 15 128 0 1 0 0 empty empty sharp -7 -9 0 10 -262144
-1 -1 0 1;
#X floatatom 25 222 5 0 0 0 - - -, f 5;
#X obj 81 67 vsl 15 128 0 250 0 0 empty empty am 0 -9 0 10 -262144
-1 -1 0 1;
#X floatatom 81 222 5 0 0 0 - - -, f 5;
#X obj 132 67 vsl 15 128 0 1 0 0 empty empty am\ trem -12 -9 0 10 -262144
-1 -1 0 1;
#X floatatom 132 222 5 0 0 0 - - -, f 5;
#X obj 184 67 vsl 15 128 0.5 1 0 0 empty empty duty -4 -9 0 10 -262144
-1 -1 0 1;
#X floatatom 184 222 5 0 0 0 - - -, f 5;
#X obj 235 67 vsl 15 128 0 0.99 0 0 empty empty pw 0 -9 0 10 -262144
-1 -1 0 1;
#X floatatom 235 222 5 0 0 0 - - -, f 5;
#X obj 25 682 dac~;
#X obj 81 638 tgl 15 0 empty empty empty 17 7 0 10 -262144 -1 -1 0
1;
#N canvas 0 0 450 300 (subpatch) 0;
#X array osc 100 float 0 black #000000;
#X coords 0 1 99 -1 250 150 1;
#X restore 378 22 graph;
#X obj 81 662 metro 100;
#X obj 57 682 tabwrite~ osc;
#X obj 25 437 russianVoice;
#X obj 273 35 vsl 15 128 0 1000 0 0 a empty a 0 -9 0 10 -262144 -1
-1 0 1;
#X obj 295 35 vsl 15 128 0 1000 0 0 d empty d 0 -9 0 10 -262144 -1
-1 0 1;
#X obj 340 35 vsl 15 128 0 1000 0 0 r empty r 0 -9 0 10 -262144 -1
-1 13 1;
#X obj 318 35 vsl 15 128 0 1 0 0 s empty s 0 -9 0 10 -262144 -1 -1
12700 1;
#X obj 25 297 notein;
#X obj 25 254 s sharp;
#X obj 81 254 s am;
#X obj 132 254 s trem;
#X obj 184 254 s duty;
#X obj 235 254 s pw;
#X obj 105 437 russianVoice;
#X obj 186 437 russianVoice;
#X obj 266 437 russianVoice;
#X obj 347 437 russianVoice;
#X obj 428 437 russianVoice;
#X obj 508 437 russianVoice;
#X obj 589 437 russianVoice;
#X obj 318 -25 loadbang;
#X msg 318 -5 1;
#X msg 132 -3 0;
#X obj 25 564 *~;
#X obj 25 353 pack f f f;
#X obj 25 393 route 1 2 3 4 5 6 7 8, f 108;
#X obj 25 327 poly 8 1, f 10;
#X obj 81 566 hsl 128 15 0 1 0 0 empty empty Volume -2 -11 0 10 -262144
-1 -1 0 1;
#X obj 25 594 pg_chorus;
#X obj 285 223 hsl 37 15 0 1 0 0 empty empty chorus -2 -11 0 10 -262144
-1 -1 0 1;
#X obj 285 254 s cdw;
#X connect 0 0 1 0;
#X connect 1 0 21 0;
#X connect 2 0 3 0;
#X connect 3 0 22 0;
#X connect 4 0 5 0;
#X connect 5 0 23 0;
#X connect 6 0 7 0;
#X connect 7 0 24 0;
#X connect 8 0 9 0;
#X connect 9 0 25 0;
#X connect 11 0 13 0;
#X connect 13 0 14 0;
#X connect 15 0 36 0;
#X connect 20 0 39 0;
#X connect 20 1 39 1;
#X connect 26 0 36 0;
#X connect 27 0 36 0;
#X connect 28 0 36 0;
#X connect 29 0 36 0;
#X connect 30 0 36 0;
#X connect 31 0 36 0;
#X connect 32 0 36 0;
#X connect 33 0 34 0;
#X connect 33 0 35 0;
#X connect 34 0 19 0;
#X connect 34 0 18 0;
#X connect 35 0 4 0;
#X connect 35 0 0 0;
#X connect 35 0 2 0;
#X connect 35 0 6 0;
#X connect 35 0 8 0;
#X connect 35 0 16 0;
#X connect 35 0 17 0;
#X connect 36 0 41 0;
#X connect 37 0 38 0;
#X connect 38 0 15 0;
#X connect 38 1 26 0;
#X connect 38 2 27 0;
#X connect 38 3 28 0;
#X connect 38 4 29 0;
#X connect 38 5 30 0;
#X connect 38 6 31 0;
#X connect 38 7 32 0;
#X connect 39 0 37 0;
#X connect 39 1 37 1;
#X connect 39 2 37 2;
#X connect 40 0 36 1;
#X connect 41 0 10 0;
#X connect 41 0 10 1;
#X connect 41 0 14 0;
#X connect 42 0 43 0;
