#N canvas 1075 321 970 557 10;
#X obj 578 423 delwrite~ \$0-delay 1000;
#X obj 169 108 osc~ 0.05;
#X obj 169 133 *~ 10;
#X obj 249 133 *~ 10;
#X obj 169 158 +~ 11;
#X obj 249 158 +~ 21;
#X obj 249 108 osc~ 0.08;
#X obj 329 133 *~ 10;
#X obj 409 133 *~ 10;
#X obj 329 108 osc~ 0.13;
#X obj 329 158 +~ 13;
#X obj 409 108 osc~ 0.21;
#X obj 409 158 +~ 34;
#X obj 499 133 *~ 10;
#X obj 499 158 +~ 55;
#X obj 499 108 osc~ 0.03;
#X obj 579 158 +~ 87;
#X obj 579 108 osc~ 0.015;
#X obj 669 108 osc~ 0.12;
#X obj 669 158 +~ 67;
#X obj 669 133 *~ 5;
#X obj 579 133 *~ 15;
#X obj 169 186 vd~ \$0-delay;
#X obj 249 186 vd~ \$0-delay;
#X obj 329 186 vd~ \$0-delay;
#X obj 409 186 vd~ \$0-delay;
#X obj 499 186 vd~ \$0-delay;
#X obj 579 186 vd~ \$0-delay;
#X obj 669 186 vd~ \$0-delay;
#X obj 578 271 inlet~;
#X text 21 496 chorus by Piere Guillot https://forum.pdpatchrepo.info/user/pierre-guillot
;
#X obj 473 463 outlet~;
#X obj 311 348 r cdw;
#N canvas -1064 486 829 587 drywet 0;
#X obj 149 292 *~;
#X obj 274 307 *~;
#X obj 257 119 inlet~;
#X obj 307 119 inlet~;
#X obj 229 196 - 1;
#X floatatom 246 254 5 0 0 0 - - -, f 5;
#X obj 237 224 * -1;
#X floatatom 208 255 5 0 0 0 - - -, f 5;
#X obj 149 349 +~;
#X obj 146 391 outlet~;
#X obj 146 115 inlet;
#X text 229 119 wet;
#X text 353 119 dry;
#X connect 0 0 8 0;
#X connect 1 0 8 1;
#X connect 2 0 0 0;
#X connect 3 0 1 0;
#X connect 4 0 6 0;
#X connect 5 0 1 1;
#X connect 6 0 5 0;
#X connect 7 0 0 1;
#X connect 8 0 9 0;
#X connect 10 0 4 0;
#X connect 10 0 7 0;
#X restore 339 394 pd drywet;
#X obj 389 317 /~ 4;
#X connect 1 0 2 0;
#X connect 2 0 4 0;
#X connect 3 0 5 0;
#X connect 4 0 22 0;
#X connect 5 0 23 0;
#X connect 6 0 3 0;
#X connect 7 0 10 0;
#X connect 8 0 12 0;
#X connect 9 0 7 0;
#X connect 10 0 24 0;
#X connect 11 0 8 0;
#X connect 12 0 25 0;
#X connect 13 0 14 0;
#X connect 14 0 26 0;
#X connect 15 0 13 0;
#X connect 16 0 27 0;
#X connect 17 0 21 0;
#X connect 18 0 20 0;
#X connect 19 0 28 0;
#X connect 20 0 19 0;
#X connect 21 0 16 0;
#X connect 22 0 34 0;
#X connect 23 0 34 0;
#X connect 24 0 34 0;
#X connect 25 0 34 0;
#X connect 26 0 34 0;
#X connect 27 0 34 0;
#X connect 28 0 34 0;
#X connect 29 0 0 0;
#X connect 29 0 33 2;
#X connect 32 0 33 0;
#X connect 33 0 31 0;
#X connect 34 0 33 1;
