#N canvas 320 393 1888 554 10;
#X obj 21 205 russianOsc;
#X obj 35 36 inlet;
#X obj 21 406 outlet~;
#X obj 35 80 mtof;
#X obj 21 125 r sharp;
#X obj 70 125 r am;
#X obj 101 125 r trem;
#X obj 144 125 r duty;
#X obj 187 125 r pw;
#X obj 42 345 / 127;
#X obj 42 273 adsr;
#X obj 21 308 *~, f 4;
#X obj 74 273 sel 0;
#X obj 21 381 *~, f 4;
#X obj 35 58 unpack f f, f 48;
#X obj 21 237 *~ 0.25;
#X connect 0 0 15 0;
#X connect 1 0 14 0;
#X connect 3 0 0 1;
#X connect 4 0 0 0;
#X connect 5 0 0 2;
#X connect 6 0 0 3;
#X connect 7 0 0 4;
#X connect 8 0 0 5;
#X connect 9 0 13 1;
#X connect 10 0 11 1;
#X connect 11 0 13 0;
#X connect 12 1 9 0;
#X connect 13 0 2 0;
#X connect 14 0 3 0;
#X connect 14 1 10 0;
#X connect 14 1 12 0;
#X connect 15 0 11 0;
