#N canvas -8 -8 1904 996 10;
#X obj 41 205 russianOsc;
#X obj 123 205 russianOsc;
#X obj 204 205 russianOsc;
#X obj 41 54 inlet;
#X obj 78 54 inlet;
#X obj 163 54 inlet;
#X obj 200 54 inlet;
#X obj 237 54 inlet;
#X obj 274 54 inlet;
#X obj 43 468 outlet~;
#X obj 291 364 *~;
#X obj 231 364 *~;
#X msg 246 287 0;
#X obj 246 263 sel 0;
#X obj 286 263 sel 1;
#X msg 277 287 1;
#X msg 306 287 0;
#X obj 326 263 sel 2;
#X msg 335 287 1;
#X obj 326 206 inlet;
#X obj 90 74 - 0.5;
#X obj 102 94 + 1;
#X obj 61 236 s~ scope;
#X connect 0 0 9 0;
#X connect 0 0 22 0;
#X connect 1 0 11 0;
#X connect 2 0 10 0;
#X connect 3 0 0 0;
#X connect 3 0 1 0;
#X connect 3 0 2 0;
#X connect 4 0 0 1;
#X connect 4 0 20 0;
#X connect 5 0 0 2;
#X connect 5 0 1 2;
#X connect 5 0 2 2;
#X connect 6 0 0 3;
#X connect 6 0 1 3;
#X connect 6 0 2 3;
#X connect 7 0 0 4;
#X connect 7 0 1 4;
#X connect 7 0 2 4;
#X connect 8 0 0 5;
#X connect 8 0 1 5;
#X connect 8 0 2 5;
#X connect 10 0 9 0;
#X connect 11 0 9 0;
#X connect 12 0 11 1;
#X connect 12 0 10 1;
#X connect 13 0 12 0;
#X connect 14 0 15 0;
#X connect 14 0 16 0;
#X connect 15 0 11 1;
#X connect 16 0 10 1;
#X connect 17 0 15 0;
#X connect 17 0 18 0;
#X connect 18 0 10 1;
#X connect 19 0 13 0;
#X connect 19 0 14 0;
#X connect 19 0 17 0;
#X connect 20 0 21 0;
#X connect 20 0 1 1;
#X connect 21 0 2 1;
