#N canvas -7 0 942 987 10;
#X obj 21 205 russianOsc;
#X obj 103 205 russianOsc;
#X obj 184 205 russianOsc;
#X obj 35 9 inlet;
#X obj 21 468 outlet~;
#X obj 271 364 *~;
#X obj 211 364 *~;
#X msg 226 287 0;
#X obj 226 263 sel 0;
#X obj 266 263 sel 1;
#X msg 257 287 1;
#X msg 286 287 0;
#X obj 306 263 sel 2;
#X msg 315 287 1;
#X obj 47 73 - 0.5;
#X obj 59 93 + 1;
#X obj 41 236 s~ scope;
#X obj 35 31 unpack 0 0;
#X obj 35 53 mtof;
#X obj 36 364 / 127;
#X obj 90 268 r vel;
#X obj 21 438 *~;
#X obj 65 53 s vel;
#X obj 36 300 adsr;
#X obj 21 325 *~;
#X obj 90 300 sel 0;
#X obj 21 268 -~ 0.5;
#X obj 21 125 r sharp;
#X obj 70 125 r am;
#X obj 101 125 r trem;
#X obj 144 125 r duty;
#X obj 187 125 r pw;
#X obj 306 220 r uni;
#X connect 0 0 16 0;
#X connect 0 0 26 0;
#X connect 1 0 6 0;
#X connect 2 0 5 0;
#X connect 3 0 17 0;
#X connect 5 0 21 0;
#X connect 6 0 21 0;
#X connect 7 0 6 1;
#X connect 7 0 5 1;
#X connect 8 0 7 0;
#X connect 9 0 10 0;
#X connect 9 0 11 0;
#X connect 10 0 6 1;
#X connect 11 0 5 1;
#X connect 12 0 10 0;
#X connect 12 0 13 0;
#X connect 13 0 5 1;
#X connect 14 0 15 0;
#X connect 14 0 1 1;
#X connect 15 0 2 1;
#X connect 17 0 18 0;
#X connect 17 1 22 0;
#X connect 18 0 14 0;
#X connect 18 0 0 1;
#X connect 19 0 21 1;
#X connect 20 0 23 0;
#X connect 20 0 25 0;
#X connect 21 0 4 0;
#X connect 23 0 24 1;
#X connect 24 0 21 0;
#X connect 25 1 19 0;
#X connect 26 0 24 0;
#X connect 27 0 0 0;
#X connect 27 0 1 0;
#X connect 27 0 2 0;
#X connect 28 0 0 2;
#X connect 28 0 1 2;
#X connect 28 0 2 2;
#X connect 29 0 0 3;
#X connect 29 0 1 3;
#X connect 29 0 2 3;
#X connect 30 0 0 4;
#X connect 30 0 1 4;
#X connect 30 0 2 4;
#X connect 31 0 2 5;
#X connect 31 0 1 5;
#X connect 31 0 0 5;
#X connect 32 0 12 0;
#X connect 32 0 9 0;
#X connect 32 0 8 0;
