#N canvas 817 59 942 1003 10;
#X obj 131 85 phasor~;
#X obj 229 179 triangle~;
#X obj 225 236 <~ 0.5, f 23;
#N canvas 345 393 829 564 drywet 0;
#X obj 149 292 *~;
#X obj 274 307 *~;
#X obj 257 119 inlet~;
#X obj 307 119 inlet~;
#X obj 229 196 - 1;
#X floatatom 246 254 5 0 0 0 - - -, f 5;
#X obj 237 224 * -1;
#X floatatom 208 255 5 0 0 0 - - -, f 5;
#X obj 149 349 +~;
#X obj 146 391 outlet~;
#X obj 146 115 inlet;
#X text 229 119 wet;
#X text 353 119 dry;
#X connect 0 0 8 0;
#X connect 1 0 8 1;
#X connect 2 0 0 0;
#X connect 3 0 1 0;
#X connect 4 0 6 0;
#X connect 5 0 1 1;
#X connect 6 0 5 0;
#X connect 7 0 0 1;
#X connect 8 0 9 0;
#X connect 10 0 4 0;
#X connect 10 0 7 0;
#X restore 19 340 pd drywet;
#X obj 27 570 *~, f 22;
#X obj 21 31 inlet;
#X obj 61 31 inlet;
#X obj 308 100 inlet;
#X obj 152 536 +~;
#X obj 145 394 *~;
#X obj 146 369 cycle~;
#X obj 144 340 inlet;
#X obj 373 113 inlet;
#X obj 224 340 inlet;
#X text 136 319 mod freq;
#X text 211 316 trem depth;
#X msg 226 370 \$1 50;
#X obj 209 395 line~;
#X obj 281 368 t b f;
#X msg 277 393 1;
#X obj 279 435 - 0, f 5;
#X msg 260 477 \$1 50;
#X obj 243 502 line~;
#X obj 24 612 outlet~;
#X connect 0 0 1 0;
#X connect 1 0 2 0;
#X connect 1 0 3 1;
#X connect 2 0 3 2;
#X connect 3 0 4 0;
#X connect 4 0 23 0;
#X connect 5 0 3 0;
#X connect 6 0 0 0;
#X connect 7 0 1 1;
#X connect 8 0 4 1;
#X connect 9 0 8 0;
#X connect 10 0 9 0;
#X connect 11 0 10 0;
#X connect 12 0 2 1;
#X connect 13 0 16 0;
#X connect 13 0 18 0;
#X connect 16 0 17 0;
#X connect 17 0 9 1;
#X connect 18 0 19 0;
#X connect 18 1 20 1;
#X connect 19 0 20 0;
#X connect 20 0 21 0;
#X connect 21 0 22 0;
#X connect 22 0 8 1;
