#N canvas 467 600 1888 554 10;
#X obj 36 36 inlet;
#X obj 21 406 outlet~;
#X obj 36 80 mtof;
#X obj 21 125 r sharp;
#X obj 70 125 r am;
#X obj 101 125 r trem;
#X obj 144 125 r duty;
#X obj 187 125 r pw;
#X obj 84 345 / 127;
#X obj 21 308 *~, f 4;
#X obj 92 272 sel 0;
#X obj 21 381 *~, f 11;
#X obj 36 58 unpack f f, f 48;
#N canvas -8 -8 2544 1356 russianOsc 0;
#X obj 136 77 phasor~;
#X obj 234 171 triangle~;
#X obj 230 228 <~ 0.5, f 23;
#X obj 32 562 *~, f 22;
#X obj 26 23 inlet;
#X obj 66 23 inlet;
#X obj 313 92 inlet;
#X obj 157 528 +~;
#X obj 150 386 *~;
#X obj 151 361 cycle~;
#X obj 149 332 inlet;
#X obj 378 105 inlet;
#X obj 229 332 inlet;
#X text 141 311 mod freq;
#X text 216 308 trem depth;
#X msg 231 362 \$1 50;
#X obj 214 387 line~;
#X obj 286 360 t b f;
#X msg 282 385 1;
#X obj 284 427 - 0, f 5;
#X msg 265 469 \$1 50;
#X obj 248 494 line~;
#X obj 29 604 outlet~;
#X obj 24 332 eqpdw;
#X connect 0 0 1 0;
#X connect 1 0 2 0;
#X connect 1 0 23 0;
#X connect 2 0 23 2;
#X connect 3 0 22 0;
#X connect 4 0 23 1;
#X connect 5 0 0 0;
#X connect 6 0 1 1;
#X connect 7 0 3 1;
#X connect 8 0 7 0;
#X connect 9 0 8 0;
#X connect 10 0 9 0;
#X connect 11 0 2 1;
#X connect 12 0 15 0;
#X connect 12 0 17 0;
#X connect 15 0 16 0;
#X connect 16 0 8 1;
#X connect 17 0 18 0;
#X connect 17 1 19 1;
#X connect 18 0 19 0;
#X connect 19 0 20 0;
#X connect 20 0 21 0;
#X connect 21 0 7 1;
#X connect 23 0 3 0;
#X restore 21 189 pd russianOsc;
#N canvas -8 -8 2544 1379 adsr 0;
#X obj 100 29 inlet;
#X obj 85 295 outlet~;
#X obj 100 56 sel 0;
#X obj 127 83 t b b b;
#X obj 146 215 pack 1 0;
#X obj 191 38 r a;
#X obj 226 38 r d;
#X obj 261 38 r s;
#X obj 69 29 r r;
#X obj 85 215 0;
#X obj 85 262 line~;
#X obj 217 133 + 1;
#X obj 205 175 delay;
#X obj 205 215 pack 0 0 0;
#X obj 205 236 route 0;
#X obj 24 151 pack 0 0;
#X msg 100 112 stop;
#X connect 0 0 2 0;
#X connect 2 0 15 0;
#X connect 2 0 16 0;
#X connect 2 1 3 0;
#X connect 3 0 12 0;
#X connect 3 1 4 0;
#X connect 3 2 9 0;
#X connect 4 0 10 0;
#X connect 5 0 4 1;
#X connect 5 0 11 0;
#X connect 6 0 13 2;
#X connect 7 0 13 1;
#X connect 8 0 15 1;
#X connect 9 0 10 0;
#X connect 10 0 1 0;
#X connect 11 0 12 1;
#X connect 12 0 13 0;
#X connect 13 0 14 0;
#X connect 14 0 10 0;
#X connect 15 0 10 0;
#X connect 16 0 12 0;
#X restore 42 272 pd adsr;
#X connect 0 0 12 0;
#X connect 2 0 13 1;
#X connect 3 0 13 0;
#X connect 4 0 13 2;
#X connect 5 0 13 3;
#X connect 6 0 13 4;
#X connect 7 0 13 5;
#X connect 8 0 11 1;
#X connect 9 0 11 0;
#X connect 10 1 8 0;
#X connect 11 0 1 0;
#X connect 12 0 2 0;
#X connect 12 1 10 0;
#X connect 12 1 14 0;
#X connect 13 0 9 0;
#X connect 14 0 9 1;
