#N canvas 992 483 663 507 10;
#X obj 144 357 tabread4~ sample;
#X obj 144 280 phasor~ 0.5;
#X obj 144 331 *~ 88200;
#X obj 207 178 r start;
#X floatatom 207 230 5 0 0 0 - - -, f 5;
#X obj 35 230 expr~ $v1>0.99;
#X obj 35 265 edge~;
#X obj 35 300 bng 15 250 50 0 empty empty empty 17 7 0 10 -262144 -1
-1;
#X msg 35 332 0;
#X msg 144 230 \$1;
#X obj 144 56 mtof;
#X obj 144 84 / 44100;
#X obj 144 115 * 100;
#X obj 144 143 t f b;
#X obj 144 306 lop~ 44100;
#X obj 144 13 inlet;
#X obj 144 406 outlet~;
#X connect 0 0 16 0;
#X connect 1 0 5 0;
#X connect 1 0 14 0;
#X connect 2 0 0 0;
#X connect 3 0 4 0;
#X connect 4 0 1 1;
#X connect 5 0 6 0;
#X connect 6 0 7 0;
#X connect 7 0 8 0;
#X connect 8 0 1 0;
#X connect 9 0 1 0;
#X connect 10 0 11 0;
#X connect 11 0 12 0;
#X connect 12 0 13 0;
#X connect 13 0 9 0;
#X connect 13 1 4 0;
#X connect 14 0 2 0;
#X connect 15 0 10 0;
